<?xml version="1.0" encoding="utf-8"?>
<!-- Generator: Adobe Illustrator 19.1.0, SVG Export Plug-In . SVG Version: 6.00 Build 0)  -->
<svg version="1.1" id="Layer_1" xmlns="http://www.w3.org/2000/svg" xmlns:xlink="http://www.w3.org/1999/xlink" x="0px" y="0px"
	 viewBox="0 0 256 256" style="enable-background:new 0 0 256 256;" xml:space="preserve">
<style type="text/css">
	.st0{fill:#FF0000;}
	.st1{fill:#FAC291;}
	.st2{fill:#C000FF;}
	.st3{fill:none;stroke:#00F3FF;stroke-width:3;stroke-miterlimit:10;}
</style>
<g>
	<polyline class="st0" points="68,95 68,211 27,211 27,126 	"/>
	<polyline points="68,207 68,225 27,225 27,211 	"/>
</g>
<path class="st0" d="M229,121.1c0,16.1-21.4,24.6-24.8,25.8c-4.4,1.6-19.7,7.3-30.4-1.3c-13-10.5-13.2-36.9,0-48
	c11-9.2,26.7-3.7,30.4-2.4C205.8,95.8,229,104.3,229,121.1z"/>
<path class="st0" d="M22,121.6c0-16.1,21.4-24.6,24.8-25.8c4.4-1.6,19.7-7.3,30.4,1.3c13,10.5,13.2,36.9,0,48
	c-11,9.2-26.7,3.7-30.4,2.4C45.3,146.9,22,138.4,22,121.6z"/>
<ellipse class="st1" cx="123.6" cy="118.7" rx="55.3" ry="57.5"/>
<circle class="st2" cx="48" cy="226.7" r="19.7"/>
<g>
	<path class="st3" d="M48.1,226.8c-2.1-7.1,2.5-14.6,10.1-16.9"/>
	<path class="st3" d="M47.2,226.2c7.1-2.1,14.6,2.5,16.9,10.1"/>
	<path class="st3" d="M47.6,226.3c2.1,7.1-2.5,14.6-10.1,16.9"/>
	<path class="st3" d="M47.7,225.5c-7.1,2.1-14.6-2.5-16.9-10.1"/>
	<path class="st3" d="M48.3,226.7c-6.5-3.5-8.6-12.1-4.8-19.1"/>
	<path class="st3" d="M47.9,226c3.5-6.5,12.1-8.6,19.1-4.8"/>
	<path class="st3" d="M47.7,225.4c-3.5,6.5-12.1,8.6-19.1,4.8"/>
	<path class="st3" d="M46.5,224.9c7.4,4,10,13.5,5.8,21.2"/>
</g>
</svg>
