<?xml version="1.0" encoding="utf-8"?>
<!-- Generator: Adobe Illustrator 19.1.0, SVG Export Plug-In . SVG Version: 6.00 Build 0)  -->
<svg version="1.1" id="Layer_1" xmlns="http://www.w3.org/2000/svg" xmlns:xlink="http://www.w3.org/1999/xlink" x="0px" y="0px"
	 viewBox="0 0 256 256" style="enable-background:new 0 0 256 256;" xml:space="preserve">
<style type="text/css">
	.st0{fill:#0000FF;}
	.st1{fill:#FF0000;}
	.st2{fill:#FAC291;}
</style>
<g id="Layer_1_1_">
	<g>
		<polyline class="st0" points="73,95 73,12 104,12 104,73 		"/>
		<polyline points="73,15 73,2 104,2 104,12 		"/>
	</g>
	<g>
		<polyline class="st1" points="68,100 68,216 27,216 27,131 		"/>
		<polyline points="68,212 68,230 27,230 27,216 		"/>
	</g>
	<g>
		<polyline class="st1" points="179,150 179,34 220,34 220,119 		"/>
		<polyline class="st2" points="179,38 179,20 220,20 220,34 		"/>
	</g>
	<path class="st1" d="M229,121.1c0,16.1-21.4,24.6-24.8,25.8c-4.4,1.6-19.7,7.3-30.4-1.3c-13-10.5-13.2-36.9,0-48
		c11-9.2,26.7-3.7,30.4-2.4C205.8,95.8,229,104.3,229,121.1z"/>
	<path class="st1" d="M22,121.6c0-16.1,21.4-24.6,24.8-25.8c4.4-1.6,19.7-7.3,30.4,1.3c13,10.5,13.2,36.9,0,48
		c-11,9.2-26.7,3.7-30.4,2.4C45.3,146.9,22,138.4,22,121.6z"/>
	<ellipse class="st2" cx="123.6" cy="118.7" rx="55.3" ry="57.5"/>
</g>
<g id="Layer_2">
</g>
</svg>
