<?xml version="1.0" encoding="utf-8"?>
<!-- Generator: Adobe Illustrator 19.1.0, SVG Export Plug-In . SVG Version: 6.00 Build 0)  -->
<svg version="1.1" id="Layer_1" xmlns="http://www.w3.org/2000/svg" xmlns:xlink="http://www.w3.org/1999/xlink" x="0px" y="0px"
	 viewBox="0 0 256 256" style="enable-background:new 0 0 256 256;" xml:space="preserve">
<style type="text/css">
	.st0{fill:#0000FF;}
	.st1{fill:#FF0000;}
	.st2{fill:#FAC291;}
</style>
<g>
	<polyline class="st0" points="143.5,71 143.5,10 174.5,10 174.5,93 	"/>
	<polyline points="143.5,10 143.5,0 174.5,0 174.5,13 	"/>
</g>
<g>
	<polyline class="st1" points="32,138.5 32,22.5 73,22.5 73,107.5 	"/>
	<polyline points="32,26.5 32,8.5 73,8.5 73,22.5 	"/>
</g>
<g>
	<polyline class="st1" points="219.9,100.4 219.9,216.4 178.9,216.4 178.9,131.4 	"/>
	<polyline class="st2" points="219.9,212.4 219.9,230.4 178.9,230.4 178.9,216.4 	"/>
</g>
<path class="st1" d="M229,121.1c0,16.1-21.4,24.6-24.8,25.8c-4.4,1.6-19.7,7.3-30.4-1.3c-13-10.5-13.2-36.9,0-48
	c11-9.2,26.7-3.7,30.4-2.4C205.8,95.8,229,104.3,229,121.1z"/>
<path class="st1" d="M22,121.6c0-16.1,21.4-24.6,24.8-25.8c4.4-1.6,19.7-7.3,30.4,1.3c13,10.5,13.2,36.9,0,48
	c-11,9.2-26.7,3.7-30.4,2.4C45.3,146.9,22,138.4,22,121.6z"/>
<ellipse class="st2" cx="123.6" cy="118.7" rx="55.3" ry="57.5"/>
</svg>
